ffmpeg started on 2025-05-12 at 17:42:58
Report written to "D:\Convert\FFMetrics\reports\ssim_report-6.txt"
Log level: 32
Command line:
ffmpeg -hide_banner -nostdin -i "G:\\\xc0\xed\xe8\xec\xe5\\\xce\xed\xe3\xee\xe8\xed\xe3\xe8\\!_35_\xcb\xe5\xf2\xee_2024\\DreamCast\\\xce\xef\xe5\xf0\xe0\xf6\xe8\xff - \xd1\xe5\xec\xe5\xe9\xea\xe0 \xa8\xe4\xe7\xe0\xea\xf3\xf0\xe0\\[DC] Yozakura-san Chi no Daisakusen - 19_Telegram_HEVC.mkv" -i "G:\\\xc0\xed\xe8\xec\xe5\\\xce\xed\xe3\xee\xe8\xed\xe3\xe8\\!_35_\xcb\xe5\xf2\xee_2024\\DreamCast\\\xce\xef\xe5\xf0\xe0\xf6\xe8\xff - \xd1\xe5\xec\xe5\xe9\xea\xe0 \xa8\xe4\xe7\xe0\xea\xf3\xf0\xe0\\[DC] Yozakura-san Chi no Daisakusen - 19_Telegram.mp4" -lavfi "[0:v]settb=AVTB,setpts=PTS-STARTPTS,format=pix_fmts=yuv420p10,fps=24000/1001,scale=1920:1080:flags=bicubic[main];[1:v]settb=AVTB,setpts=PTS-STARTPTS,format=pix_fmts=yuv420p,fps=24000/1001,scale=1920:1080:flags=bicubic[ref];[main][ref]ssim=eof_action=endall:stats_file='D\\:/Convert/FFMetrics/logs/ssim_logfile-6.txt'" -f null -
Input #0, matroska,webm, from 'G:\Аниме\Онгоинги\!_35_Лето_2024\DreamCast\Операция - Семейка Ёдзакура\[DC] Yozakura-san Chi no Daisakusen - 19_Telegram_HEVC.mkv':
  Metadata:
    COMPATIBLE_BRANDS: isomiso2avc1mp41
    MAJOR_BRAND     : isom
    MINOR_VERSION   : 512
    ENCODER         : Lavf61.7.100
  Duration: 00:24:24.75, start: -0.021000, bitrate: 1438 kb/s
  Stream #0:0: Video: hevc (Main 10), yuv420p10le(tv, bt709, progressive), 1920x1080 [SAR 1:1 DAR 16:9], 23.98 fps, 23.98 tbr, 1k tbn (default)
      Metadata:
        HANDLER_NAME    : VideoHandler
        VENDOR_ID       : [0][0][0][0]
        ENCODER         : Lavc61.19.100 libx265
        BPS             : 1240549
        DURATION        : 00:24:24.629708333
        NUMBER_OF_FRAMES: 35116
        NUMBER_OF_BYTES : 227118023
        _STATISTICS_WRITING_APP: mkvpropedit v66.0.0 ('Josie') 64-bit
        _STATISTICS_WRITING_DATE_UTC: 2025-05-08 16:22:43
        _STATISTICS_TAGS: BPS DURATION NUMBER_OF_FRAMES NUMBER_OF_BYTES
  Stream #0:1: Audio: aac (LC), 48000 Hz, stereo, fltp (default)
      Metadata:
        HANDLER_NAME    : SoundHandler
        VENDOR_ID       : [0][0][0][0]
        ENCODER         : Lavc61.19.100 aac
        BPS             : 194199
        DURATION        : 00:24:24.746000000
        NUMBER_OF_FRAMES: 68661
        NUMBER_OF_BYTES : 35556651
        _STATISTICS_WRITING_APP: mkvpropedit v66.0.0 ('Josie') 64-bit
        _STATISTICS_WRITING_DATE_UTC: 2025-05-08 16:22:43
        _STATISTICS_TAGS: BPS DURATION NUMBER_OF_FRAMES NUMBER_OF_BYTES
Input #1, mov,mp4,m4a,3gp,3g2,mj2, from 'G:\Аниме\Онгоинги\!_35_Лето_2024\DreamCast\Операция - Семейка Ёдзакура\[DC] Yozakura-san Chi no Daisakusen - 19_Telegram.mp4':
  Metadata:
    major_brand     : isom
    minor_version   : 512
    compatible_brands: isomiso2avc1mp41
    encoder         : Lavf61.1.100
  Duration: 00:24:24.69, start: 0.000000, bitrate: 3735 kb/s
  Stream #1:0[0x1](und): Video: h264 (High) (avc1 / 0x31637661), yuv420p(tv, bt709, progressive), 1920x1080 [SAR 1:1 DAR 16:9], 3587 kb/s, 23.98 fps, 23.98 tbr, 24k tbn (default)
      Metadata:
        handler_name    : VideoHandler
        vendor_id       : [0][0][0][0]
        encoder         : Lavc61.3.100 h264_qsv
  Stream #1:1[0x2](und): Audio: aac (HE-AACv2) (mp4a / 0x6134706D), 48000 Hz, stereo, fltp, 144 kb/s (default)
      Metadata:
        handler_name    : SoundHandler
        vendor_id       : [0][0][0][0]
Stream mapping:
  Stream #0:0 (hevc) -> settb:default
  Stream #1:0 (h264) -> settb:default
  ssim:default -> Stream #0:0 (wrapped_avframe)
  Stream #0:1 -> #0:1 (aac (native) -> pcm_s16le (native))
Output #0, null, to 'pipe:':
  Metadata:
    COMPATIBLE_BRANDS: isomiso2avc1mp41
    MAJOR_BRAND     : isom
    MINOR_VERSION   : 512
    encoder         : Lavf61.7.100
  Stream #0:0: Video: wrapped_avframe, yuv420p10le(tv, bt709, progressive), 1920x1080 [SAR 1:1 DAR 16:9], q=2-31, 200 kb/s, 23.98 fps, 23.98 tbn
      Metadata:
        encoder         : Lavc61.19.100 wrapped_avframe
  Stream #0:1: Audio: pcm_s16le, 48000 Hz, stereo, s16, 1536 kb/s (default)
      Metadata:
        HANDLER_NAME    : SoundHandler
        VENDOR_ID       : [0][0][0][0]
        _STATISTICS_TAGS: BPS DURATION NUMBER_OF_FRAMES NUMBER_OF_BYTES
        BPS             : 194199
        DURATION        : 00:24:24.746000000
        NUMBER_OF_FRAMES: 68661
        NUMBER_OF_BYTES : 35556651
        _STATISTICS_WRITING_APP: mkvpropedit v66.0.0 ('Josie') 64-bit
        _STATISTICS_WRITING_DATE_UTC: 2025-05-08 16:22:43
        encoder         : Lavc61.19.100 pcm_s16le
frame=  173 fps=0.0 q=-0.0 size=N/A time=00:00:07.21 bitrate=N/A speed=  14x    frame=  394 fps=384 q=-0.0 size=N/A time=00:00:16.43 bitrate=N/A speed=  16x    frame=  631 fps=408 q=-0.0 size=N/A time=00:00:26.31 bitrate=N/A speed=  17x    frame=  893 fps=434 q=-0.0 size=N/A time=00:00:37.24 bitrate=N/A speed=18.1x    frame= 1148 fps=445 q=-0.0 size=N/A time=00:00:47.88 bitrate=N/A speed=18.6x    frame= 1400 fps=453 q=-0.0 size=N/A time=00:00:58.39 bitrate=N/A speed=18.9x    frame= 1669 fps=462 q=-0.0 size=N/A time=00:01:09.61 bitrate=N/A speed=19.3x    frame= 1946 fps=471 q=-0.0 size=N/A time=00:01:21.16 bitrate=N/A speed=19.6x    frame= 2192 fps=472 q=-0.0 size=N/A time=00:01:31.42 bitrate=N/A speed=19.7x    frame= 2460 fps=477 q=-0.0 size=N/A time=00:01:42.60 bitrate=N/A speed=19.9x    frame= 2682 fps=473 q=-0.0 size=N/A time=00:01:51.86 bitrate=N/A speed=19.7x    frame= 2955 fps=477 q=-0.0 size=N/A time=00:02:03.24 bitrate=N/A speed=19.9x    frame= 3194 fps=477 q=-0.0 size=N/A time=00:02:13.21 bitrate=N/A speed=19.9x    frame= 3484 fps=482 q=-0.0 size=N/A time=00:02:25.31 bitrate=N/A speed=20.1x    frame= 3737 fps=483 q=-0.0 size=N/A time=00:02:35.86 bitrate=N/A speed=20.2x    frame= 4003 fps=485 q=-0.0 size=N/A time=00:02:46.95 bitrate=N/A speed=20.2x    frame= 4156 fps=475 q=-0.0 size=N/A time=00:02:53.33 bitrate=N/A speed=19.8x    frame= 4323 fps=466 q=-0.0 size=N/A time=00:03:00.30 bitrate=N/A speed=19.4x    frame= 4495 fps=459 q=-0.0 size=N/A time=00:03:07.47 bitrate=N/A speed=19.1x    frame= 4726 fps=458 q=-0.0 size=N/A time=00:03:17.11 bitrate=N/A speed=19.1x    frame= 4933 fps=456 q=-0.0 size=N/A time=00:03:25.74 bitrate=N/A speed=  19x    frame= 5131 fps=452 q=-0.0 size=N/A time=00:03:34.00 bitrate=N/A speed=18.9x    frame= 5355 fps=451 q=-0.0 size=N/A time=00:03:43.34 bitrate=N/A speed=18.8x    frame= 5517 fps=446 q=-0.0 size=N/A time=00:03:50.10 bitrate=N/A speed=18.6x    frame= 5675 fps=440 q=-0.0 size=N/A time=00:03:56.69 bitrate=N/A speed=18.4x    frame= 5882 fps=439 q=-0.0 size=N/A time=00:04:05.32 bitrate=N/A speed=18.3x    frame= 6067 fps=436 q=-0.0 size=N/A time=00:04:13.04 bitrate=N/A speed=18.2x    frame= 6268 fps=434 q=-0.0 size=N/A time=00:04:21.42 bitrate=N/A speed=18.1x    frame= 6542 fps=437 q=-0.0 size=N/A time=00:04:32.85 bitrate=N/A speed=18.2x    frame= 6802 fps=440 q=-0.0 size=N/A time=00:04:43.70 bitrate=N/A speed=18.3x    frame= 7078 fps=443 q=-0.0 size=N/A time=00:04:55.21 bitrate=N/A speed=18.5x    frame= 7328 fps=444 q=-0.0 size=N/A time=00:05:05.63 bitrate=N/A speed=18.5x    frame= 7575 fps=445 q=-0.0 size=N/A time=00:05:15.94 bitrate=N/A speed=18.6x    frame= 7835 fps=447 q=-0.0 size=N/A time=00:05:26.78 bitrate=N/A speed=18.6x    frame= 8122 fps=450 q=-0.0 size=N/A time=00:05:38.75 bitrate=N/A speed=18.8x    frame= 8400 fps=452 q=-0.0 size=N/A time=00:05:50.35 bitrate=N/A speed=18.9x    frame= 8666 fps=454 q=-0.0 size=N/A time=00:06:01.44 bitrate=N/A speed=18.9x    frame= 8919 fps=455 q=-0.0 size=N/A time=00:06:11.99 bitrate=N/A speed=  19x    frame= 9176 fps=456 q=-0.0 size=N/A time=00:06:22.71 bitrate=N/A speed=  19x    frame= 9409 fps=456 q=-0.0 size=N/A time=00:06:32.43 bitrate=N/A speed=  19x    frame= 9661 fps=457 q=-0.0 size=N/A time=00:06:42.94 bitrate=N/A speed=19.1x    frame= 9880 fps=456 q=-0.0 size=N/A time=00:06:52.07 bitrate=N/A speed=  19x    frame=10080 fps=455 q=-0.0 size=N/A time=00:07:00.42 bitrate=N/A speed=  19x    frame=10265 fps=452 q=-0.0 size=N/A time=00:07:08.13 bitrate=N/A speed=18.9x    frame=10435 fps=450 q=-0.0 size=N/A time=00:07:15.22 bitrate=N/A speed=18.8x    frame=10648 fps=449 q=-0.0 size=N/A time=00:07:24.11 bitrate=N/A speed=18.7x    frame=10910 fps=450 q=-0.0 size=N/A time=00:07:35.03 bitrate=N/A speed=18.8x    frame=11140 fps=450 q=-0.0 size=N/A time=00:07:44.63 bitrate=N/A speed=18.8x    frame=11391 fps=451 q=-0.0 size=N/A time=00:07:55.09 bitrate=N/A speed=18.8x    frame=11599 fps=450 q=-0.0 size=N/A time=00:08:03.77 bitrate=N/A speed=18.8x    frame=11858 fps=451 q=-0.0 size=N/A time=00:08:14.57 bitrate=N/A speed=18.8x    frame=12111 fps=452 q=-0.0 size=N/A time=00:08:25.12 bitrate=N/A speed=18.8x    frame=12364 fps=452 q=-0.0 size=N/A time=00:08:35.68 bitrate=N/A speed=18.9x    frame=12546 fps=451 q=-0.0 size=N/A time=00:08:43.27 bitrate=N/A speed=18.8x    frame=12772 fps=450 q=-0.0 size=N/A time=00:08:52.69 bitrate=N/A speed=18.8x    frame=13008 fps=451 q=-0.0 size=N/A time=00:09:02.54 bitrate=N/A speed=18.8x    frame=13236 fps=450 q=-0.0 size=N/A time=00:09:12.05 bitrate=N/A speed=18.8x    frame=13458 fps=450 q=-0.0 size=N/A time=00:09:21.31 bitrate=N/A speed=18.8x    frame=13695 fps=450 q=-0.0 size=N/A time=00:09:31.19 bitrate=N/A speed=18.8x    frame=13966 fps=451 q=-0.0 size=N/A time=00:09:42.49 bitrate=N/A speed=18.8x    frame=14201 fps=451 q=-0.0 size=N/A time=00:09:52.30 bitrate=N/A speed=18.8x    frame=14441 fps=452 q=-0.0 size=N/A time=00:10:02.31 bitrate=N/A speed=18.8x    frame=14663 fps=451 q=-0.0 size=N/A time=00:10:11.56 bitrate=N/A speed=18.8x    frame=14894 fps=451 q=-0.0 size=N/A time=00:10:21.20 bitrate=N/A speed=18.8x    frame=15136 fps=452 q=-0.0 size=N/A time=00:10:31.29 bitrate=N/A speed=18.8x    frame=15393 fps=452 q=-0.0 size=N/A time=00:10:42.01 bitrate=N/A speed=18.9x    frame=15628 fps=452 q=-0.0 size=N/A time=00:10:51.81 bitrate=N/A speed=18.9x    frame=15852 fps=452 q=-0.0 size=N/A time=00:11:01.16 bitrate=N/A speed=18.9x    frame=16115 fps=453 q=-0.0 size=N/A time=00:11:12.12 bitrate=N/A speed=18.9x    frame=16351 fps=453 q=-0.0 size=N/A time=00:11:21.97 bitrate=N/A speed=18.9x    frame=16591 fps=453 q=-0.0 size=N/A time=00:11:31.98 bitrate=N/A speed=18.9x    frame=16841 fps=454 q=-0.0 size=N/A time=00:11:42.41 bitrate=N/A speed=18.9x    frame=17054 fps=453 q=-0.0 size=N/A time=00:11:51.29 bitrate=N/A speed=18.9x    frame=17247 fps=452 q=-0.0 size=N/A time=00:11:59.34 bitrate=N/A speed=18.9x    frame=17439 fps=451 q=-0.0 size=N/A time=00:12:07.35 bitrate=N/A speed=18.8x    frame=17663 fps=451 q=-0.0 size=N/A time=00:12:16.69 bitrate=N/A speed=18.8x    frame=17850 fps=450 q=-0.0 size=N/A time=00:12:24.49 bitrate=N/A speed=18.7x    frame=18093 fps=450 q=-0.0 size=N/A time=00:12:34.62 bitrate=N/A speed=18.8x    frame=18256 fps=448 q=-0.0 size=N/A time=00:12:41.42 bitrate=N/A speed=18.7x    frame=18506 fps=449 q=-0.0 size=N/A time=00:12:51.85 bitrate=N/A speed=18.7x    frame=18775 fps=450 q=-0.0 size=N/A time=00:13:03.07 bitrate=N/A speed=18.7x    frame=19036 fps=450 q=-0.0 size=N/A time=00:13:13.95 bitrate=N/A speed=18.8x    frame=19299 fps=451 q=-0.0 size=N/A time=00:13:24.92 bitrate=N/A speed=18.8x    frame=19571 fps=452 q=-0.0 size=N/A time=00:13:36.27 bitrate=N/A speed=18.8x    frame=19814 fps=452 q=-0.0 size=N/A time=00:13:46.40 bitrate=N/A speed=18.9x    frame=20051 fps=452 q=-0.0 size=N/A time=00:13:56.29 bitrate=N/A speed=18.9x    frame=20299 fps=453 q=-0.0 size=N/A time=00:14:06.63 bitrate=N/A speed=18.9x    frame=20539 fps=453 q=-0.0 size=N/A time=00:14:16.64 bitrate=N/A speed=18.9x    frame=20773 fps=453 q=-0.0 size=N/A time=00:14:26.40 bitrate=N/A speed=18.9x    frame=21024 fps=453 q=-0.0 size=N/A time=00:14:36.87 bitrate=N/A speed=18.9x    frame=21258 fps=453 q=-0.0 size=N/A time=00:14:46.63 bitrate=N/A speed=18.9x    frame=21489 fps=453 q=-0.0 size=N/A time=00:14:56.27 bitrate=N/A speed=18.9x    frame=21743 fps=453 q=-0.0 size=N/A time=00:15:06.86 bitrate=N/A speed=18.9x    frame=21985 fps=454 q=-0.0 size=N/A time=00:15:16.95 bitrate=N/A speed=18.9x    frame=22213 fps=453 q=-0.0 size=N/A time=00:15:26.46 bitrate=N/A speed=18.9x    frame=22411 fps=453 q=-0.0 size=N/A time=00:15:34.72 bitrate=N/A speed=18.9x    frame=22680 fps=453 q=-0.0 size=N/A time=00:15:45.94 bitrate=N/A speed=18.9x    frame=22949 fps=454 q=-0.0 size=N/A time=00:15:57.16 bitrate=N/A speed=18.9x    frame=23192 fps=454 q=-0.0 size=N/A time=00:16:07.29 bitrate=N/A speed=  19x    frame=23430 fps=454 q=-0.0 size=N/A time=00:16:17.22 bitrate=N/A speed=  19x    frame=23654 fps=454 q=-0.0 size=N/A time=00:16:26.56 bitrate=N/A speed=18.9x    frame=23936 fps=455 q=-0.0 size=N/A time=00:16:38.33 bitrate=N/A speed=  19x    frame=24215 fps=456 q=-0.0 size=N/A time=00:16:49.96 bitrate=N/A speed=  19x    frame=24435 fps=456 q=-0.0 size=N/A time=00:16:59.14 bitrate=N/A speed=  19x    frame=24658 fps=456 q=-0.0 size=N/A time=00:17:08.44 bitrate=N/A speed=  19x    frame=24903 fps=456 q=-0.0 size=N/A time=00:17:18.66 bitrate=N/A speed=  19x    frame=25121 fps=455 q=-0.0 size=N/A time=00:17:27.75 bitrate=N/A speed=  19x    frame=25396 fps=456 q=-0.0 size=N/A time=00:17:39.22 bitrate=N/A speed=  19x    frame=25641 fps=456 q=-0.0 size=N/A time=00:17:49.44 bitrate=N/A speed=  19x    frame=25910 fps=457 q=-0.0 size=N/A time=00:18:00.66 bitrate=N/A speed=19.1x    frame=26173 fps=457 q=-0.0 size=N/A time=00:18:11.63 bitrate=N/A speed=19.1x    frame=26445 fps=458 q=-0.0 size=N/A time=00:18:22.97 bitrate=N/A speed=19.1x    frame=26682 fps=458 q=-0.0 size=N/A time=00:18:32.86 bitrate=N/A speed=19.1x    frame=26928 fps=458 q=-0.0 size=N/A time=00:18:43.12 bitrate=N/A speed=19.1x    frame=27177 fps=458 q=-0.0 size=N/A time=00:18:53.50 bitrate=N/A speed=19.1x    frame=27398 fps=458 q=-0.0 size=N/A time=00:19:02.72 bitrate=N/A speed=19.1x    frame=27595 fps=457 q=-0.0 size=N/A time=00:19:10.94 bitrate=N/A speed=19.1x    frame=27837 fps=457 q=-0.0 size=N/A time=00:19:21.03 bitrate=N/A speed=19.1x    frame=28026 fps=457 q=-0.0 size=N/A time=00:19:28.91 bitrate=N/A speed=19.1x    frame=28302 fps=457 q=-0.0 size=N/A time=00:19:40.42 bitrate=N/A speed=19.1x    frame=28566 fps=458 q=-0.0 size=N/A time=00:19:51.44 bitrate=N/A speed=19.1x    frame=28806 fps=458 q=-0.0 size=N/A time=00:20:01.45 bitrate=N/A speed=19.1x    frame=29055 fps=458 q=-0.0 size=N/A time=00:20:11.83 bitrate=N/A speed=19.1x    frame=29337 fps=459 q=-0.0 size=N/A time=00:20:23.59 bitrate=N/A speed=19.1x    frame=29557 fps=459 q=-0.0 size=N/A time=00:20:32.77 bitrate=N/A speed=19.1x    frame=29828 fps=459 q=-0.0 size=N/A time=00:20:44.07 bitrate=N/A speed=19.1x    frame=30085 fps=459 q=-0.0 size=N/A time=00:20:54.79 bitrate=N/A speed=19.2x    frame=30344 fps=460 q=-0.0 size=N/A time=00:21:05.59 bitrate=N/A speed=19.2x    frame=30610 fps=460 q=-0.0 size=N/A time=00:21:16.69 bitrate=N/A speed=19.2x    frame=30853 fps=460 q=-0.0 size=N/A time=00:21:26.82 bitrate=N/A speed=19.2x    frame=31045 fps=460 q=-0.0 size=N/A time=00:21:34.83 bitrate=N/A speed=19.2x    frame=31276 fps=460 q=-0.0 size=N/A time=00:21:44.46 bitrate=N/A speed=19.2x    frame=31501 fps=459 q=-0.0 size=N/A time=00:21:53.85 bitrate=N/A speed=19.2x    frame=31737 fps=459 q=-0.0 size=N/A time=00:22:03.69 bitrate=N/A speed=19.2x    frame=31984 fps=459 q=-0.0 size=N/A time=00:22:13.99 bitrate=N/A speed=19.2x    frame=32236 fps=460 q=-0.0 size=N/A time=00:22:24.50 bitrate=N/A speed=19.2x    frame=32488 fps=460 q=-0.0 size=N/A time=00:22:35.02 bitrate=N/A speed=19.2x    frame=32710 fps=460 q=-0.0 size=N/A time=00:22:44.27 bitrate=N/A speed=19.2x    frame=32860 fps=458 q=-0.0 size=N/A time=00:22:50.53 bitrate=N/A speed=19.1x    frame=33006 fps=457 q=-0.0 size=N/A time=00:22:56.62 bitrate=N/A speed=19.1x    frame=33177 fps=456 q=-0.0 size=N/A time=00:23:03.75 bitrate=N/A speed=  19x    frame=33387 fps=456 q=-0.0 size=N/A time=00:23:12.51 bitrate=N/A speed=  19x    frame=33545 fps=455 q=-0.0 size=N/A time=00:23:19.10 bitrate=N/A speed=  19x    frame=33735 fps=454 q=-0.0 size=N/A time=00:23:27.03 bitrate=N/A speed=  19x    frame=33945 fps=454 q=-0.0 size=N/A time=00:23:35.78 bitrate=N/A speed=18.9x    frame=34144 fps=454 q=-0.0 size=N/A time=00:23:44.08 bitrate=N/A speed=18.9x    frame=34291 fps=452 q=-0.0 size=N/A time=00:23:50.22 bitrate=N/A speed=18.9x    frame=34442 fps=451 q=-0.0 size=N/A time=00:23:56.51 bitrate=N/A speed=18.8x    frame=34591 fps=450 q=-0.0 size=N/A time=00:24:02.73 bitrate=N/A speed=18.8x    frame=34756 fps=449 q=-0.0 size=N/A time=00:24:09.61 bitrate=N/A speed=18.7x    frame=34926 fps=449 q=-0.0 size=N/A time=00:24:16.70 bitrate=N/A speed=18.7x    [Parsed_ssim_10 @ 000001e280eb7d80] SSIM Y:0.994250 (22.403141) U:0.993749 (22.040389) V:0.993513 (21.879757) All:0.994044 (22.250109)
[out#0/null @ 000001e2f41367c0] video:15089KiB audio:274644KiB subtitle:0KiB other streams:0KiB global headers:0KiB muxing overhead: unknown
frame=35116 fps=449 q=-0.0 Lsize=N/A time=00:24:24.62 bitrate=N/A speed=18.7x    
